<?xml version="1.0" encoding="UTF-8" standalone="no"?>
<svg
   xmlns:dc="http://purl.org/dc/elements/1.1/"
   xmlns:cc="http://creativecommons.org/ns#"
   xmlns:rdf="http://www.w3.org/1999/02/22-rdf-syntax-ns#"
   xmlns:svg="http://www.w3.org/2000/svg"
   xmlns="http://www.w3.org/2000/svg"
   xmlns:sodipodi="http://sodipodi.sourceforge.net/DTD/sodipodi-0.dtd"
   xmlns:inkscape="http://www.inkscape.org/namespaces/inkscape"
   version="1.1"
   id="svg2"
   xml:space="preserve"
   width="524.64001"
   height="524.5733"
   viewBox="0 0 524.64001 524.5733"
   sodipodi:docname="YSK Logo.eps"><metadata
     id="metadata8"><rdf:RDF><cc:Work
         rdf:about=""><dc:format>image/svg+xml</dc:format><dc:type
           rdf:resource="http://purl.org/dc/dcmitype/StillImage" /></cc:Work></rdf:RDF></metadata><defs
     id="defs6" /><sodipodi:namedview
     pagecolor="#ffffff"
     bordercolor="#666666"
     borderopacity="1"
     objecttolerance="10"
     gridtolerance="10"
     guidetolerance="10"
     inkscape:pageopacity="0"
     inkscape:pageshadow="2"
     inkscape:window-width="640"
     inkscape:window-height="480"
     id="namedview4" /><g
     id="g10"
     inkscape:groupmode="layer"
     inkscape:label="ink_ext_XXXXXX"
     transform="matrix(1.3333333,0,0,-1.3333333,0,524.57333)"><g
       id="g12"
       transform="scale(0.1)"><path
         d="M 2058.14,270.75 C 1861.96,362.738 1667.86,459.129 1490.49,545.09 1367.68,418.281 1255.95,302.809 1139.36,182.422 1391.09,65.4414 1671.6,0 1967.46,0 c 253.04,0 495,47.8711 717.22,134.879 -223.27,-8.918 -429.62,43.543 -626.54,135.871"
         style="fill:#226939;fill-opacity:1;fill-rule:nonzero;stroke:none"
         id="path14" /><path
         d="m 3756.68,1675.58 c -26.29,25.04 -51.8,51.34 -80.19,73.77 -153.11,120.58 -311.86,234.48 -458.93,361.95 -101.31,87.73 -203.08,183.07 -275.86,293.89 -137.24,208.91 -30.49,483.98 211.53,544.9 111.08,27.99 235.47,19.93 351.33,6.68 65.38,-7.54 128.98,-29.96 193.5,-52.85 -144.98,267.4 -350.15,497.37 -597.35,671.85 -214.68,-15.22 -430.15,-27.93 -628.24,-129.77 -20.39,-10.43 -44.98,-12.66 -66.95,-18.55 66.16,131.27 130.1,257.95 202.16,400.77 -187.6,64.52 -387.99,101.5 -596.37,106.09 -3.81,-8.06 -7.35,-16.72 -10.76,-26.22 -216.64,-602.87 -438.34,-1203.83 -658.99,-1805.25 -11.93,-32.53 -27.73,-63.61 -53.83,-122.69 -91.01,293.11 -175.47,556.7 -254.48,821.87 -73.051,245.31 -141.637,492.32 -217.832,760.31 -202.68,-146.69 -376.379,-331.01 -510.668,-542.8 2.031,-8.99 4.59,-17.44 7.672,-24.53 C 398.254,2794.68 498.316,2600.07 576.41,2396.93 726.766,2006.06 870.824,1612.56 1007.02,1216.51 1078.88,1007.6 978.82,846.691 811.023,731.609 736.145,680.27 647.555,648.672 547.625,605.582 673.914,473.98 818.305,359.891 976.855,267.371 c 11.54,4.649 22.098,10.68 28.525,17.309 110.09,112.129 225.56,221.5 318.35,347.199 51.6,69.961 85.76,91.269 163.53,53.371 234.55,-114.16 470.02,-226.551 707.45,-334.609 191.8,-87.34 393.23,-141.961 605.81,-113.301 45.18,6.101 90.43,10.492 135.15,17.172 465.81,263.867 813.28,712.168 943.24,1245.728 -22.16,61.7 -63.21,119.21 -122.23,175.34 m -706.26,-630.54 c -79.94,-178.61 -237.31,-246.091 -420.19,-240.251 -362.6,11.609 -660.43,165.902 -892.03,443.981 -23.14,27.74 -39.01,80.85 -29.31,113.64 98.49,331.85 202.88,661.88 306.22,992.29 3.67,11.73 13.44,21.57 29.9,47.08 132.13,-312.25 426.67,-427.92 668.24,-605.55 97.57,-71.74 193.11,-150.95 272.58,-241.63 132.12,-150.88 145.24,-329.5 64.59,-509.56"
         style="fill:#bd2130;fill-opacity:1;fill-rule:nonzero;stroke:none"
         id="path16" /><path
         d="m 869.934,1225.98 c -153.895,566.4 -408.246,1089.79 -654.336,1629.83 -2.754,-2.62 -5.114,-4.85 -7.344,-6.88 C 75.0781,2583.76 0,2284.36 0,1967.46 0,1509.83 156.258,1088.73 418.277,754.52 c 246.09,-13.579 523.391,207.472 451.657,471.46"
         style="fill:#040606;fill-opacity:1;fill-rule:nonzero;stroke:none"
         id="path18" /><path
         d="m 1044.58,3232.52 c 80.79,-277.89 165.44,-554.67 248.52,-831.84 9.38,0.2 18.69,0.39 28.06,0.59 184.45,506.41 368.97,1012.95 557.88,1531.48 -343.52,-15.21 -664.1,-118.42 -939.829,-287.79 0.066,-0.13 0,-0.26 0.066,-0.46 30.621,-138.29 65.703,-275.86 105.303,-411.98"
         style="fill:#040606;fill-opacity:1;fill-rule:nonzero;stroke:none"
         id="path20" /><path
         d="m 3794.17,2699.13 c -142.22,89.31 -297.69,140.26 -471.98,121.9 -218.09,-22.95 -310.74,-234.16 -174.88,-406.28 66.49,-84.26 151.01,-156.06 234.68,-224.58 187.53,-153.51 402.93,-276.32 533.95,-495.79 12.32,89.24 18.88,180.39 18.88,273.04 0,258.61 -49.96,505.49 -140.65,731.71"
         style="fill:#226939;fill-opacity:1;fill-rule:nonzero;stroke:none"
         id="path22" /><path
         d="m 2695.31,3795.73 c -22.82,-60.91 -44.06,-117.51 -66.75,-178.03 118.75,14.5 231.4,28.2 342.94,41.84 -87.87,52.26 -180.12,97.96 -276.19,136.19"
         style="fill:#040606;fill-opacity:1;fill-rule:nonzero;stroke:none"
         id="path24" /><path
         d="m 2553.54,1737.08 c -155.6,114.95 -314.68,225.3 -477.95,341.63 -68.46,-218.88 -143.67,-451.13 -211.21,-685.55 -9.24,-32.06 8.92,-84.78 32.79,-111.6 174.81,-196.26 399.2,-299.47 657.87,-326.869 151.41,-16 282.03,50.359 334.09,163.599 66.1,143.66 48.33,282.48 -60.39,394.67 -81.77,84.46 -180.06,153.76 -275.2,224.12"
         style="fill:#226939;fill-opacity:1;fill-rule:nonzero;stroke:none"
         id="path26" /></g></g></svg>
